<mxfile host="app.diagrams.net" modified="2023-08-25T06:45:28.395Z" agent="Mozilla/5.0 (Macintosh; Intel Mac OS X 10_15_7) AppleWebKit/537.36 (KHTML, like Gecko) Chrome/116.0.0.0 Safari/537.36 Edg/116.0.1938.54" etag="pzeT7tRldP0a0fXSgwgO" version="21.6.9" type="github">
  <diagram name="第 1 页" id="1R3koAc7YIu1ShBUz6q1">
    <mxGraphModel dx="851" dy="539" grid="0" gridSize="10" guides="1" tooltips="1" connect="1" arrows="1" fold="1" page="1" pageScale="1" pageWidth="827" pageHeight="1169" math="0" shadow="0">
      <root>
        <mxCell id="0" />
        <mxCell id="1" parent="0" />
        <mxCell id="Z-E0X7EgM4jmPWPqhnF1-12" style="edgeStyle=orthogonalEdgeStyle;rounded=0;orthogonalLoop=1;jettySize=auto;html=1;exitX=1;exitY=0.5;exitDx=0;exitDy=0;exitPerimeter=0;" edge="1" parent="1" source="Z-E0X7EgM4jmPWPqhnF1-1" target="Z-E0X7EgM4jmPWPqhnF1-6">
          <mxGeometry relative="1" as="geometry" />
        </mxCell>
        <mxCell id="Z-E0X7EgM4jmPWPqhnF1-1" value="rdb" style="shape=cylinder3;whiteSpace=wrap;html=1;boundedLbl=1;backgroundOutline=1;size=15;fillColor=#dae8fc;strokeColor=#6c8ebf;" vertex="1" parent="1">
          <mxGeometry x="100" y="170" width="70" height="65" as="geometry" />
        </mxCell>
        <mxCell id="Z-E0X7EgM4jmPWPqhnF1-13" style="edgeStyle=orthogonalEdgeStyle;rounded=0;orthogonalLoop=1;jettySize=auto;html=1;exitX=1;exitY=0.5;exitDx=0;exitDy=0;" edge="1" parent="1" source="Z-E0X7EgM4jmPWPqhnF1-2" target="Z-E0X7EgM4jmPWPqhnF1-6">
          <mxGeometry relative="1" as="geometry">
            <mxPoint x="330" y="260" as="targetPoint" />
          </mxGeometry>
        </mxCell>
        <mxCell id="Z-E0X7EgM4jmPWPqhnF1-2" value="" style="shape=image;html=1;verticalAlign=top;verticalLabelPosition=bottom;labelBackgroundColor=#ffffff;imageAspect=0;aspect=fixed;image=https://cdn0.iconfinder.com/data/icons/Hosting_Icons/128/ftp-px-png.png" vertex="1" parent="1">
          <mxGeometry x="100" y="237" width="70" height="70" as="geometry" />
        </mxCell>
        <mxCell id="Z-E0X7EgM4jmPWPqhnF1-14" style="edgeStyle=orthogonalEdgeStyle;rounded=0;orthogonalLoop=1;jettySize=auto;html=1;exitX=1;exitY=0.527;exitDx=0;exitDy=0;exitPerimeter=0;" edge="1" parent="1" source="Z-E0X7EgM4jmPWPqhnF1-4" target="Z-E0X7EgM4jmPWPqhnF1-6">
          <mxGeometry relative="1" as="geometry">
            <mxPoint x="330" y="260" as="targetPoint" />
            <Array as="points">
              <mxPoint x="170" y="347" />
              <mxPoint x="260" y="347" />
              <mxPoint x="260" y="272" />
            </Array>
          </mxGeometry>
        </mxCell>
        <mxCell id="Z-E0X7EgM4jmPWPqhnF1-4" value="" style="sketch=0;html=1;dashed=0;whitespace=wrap;fillColor=#2875E2;strokeColor=#ffffff;points=[[0.005,0.63,0],[0.1,0.2,0],[0.9,0.2,0],[0.5,0,0],[0.995,0.63,0],[0.72,0.99,0],[0.5,1,0],[0.28,0.99,0]];verticalLabelPosition=bottom;align=center;verticalAlign=top;shape=mxgraph.kubernetes.icon;prIcon=api" vertex="1" parent="1">
          <mxGeometry x="100" y="292" width="70" height="110" as="geometry" />
        </mxCell>
        <mxCell id="Z-E0X7EgM4jmPWPqhnF1-15" style="edgeStyle=orthogonalEdgeStyle;rounded=0;orthogonalLoop=1;jettySize=auto;html=1;" edge="1" parent="1" source="Z-E0X7EgM4jmPWPqhnF1-6" target="Z-E0X7EgM4jmPWPqhnF1-10">
          <mxGeometry relative="1" as="geometry" />
        </mxCell>
        <mxCell id="Z-E0X7EgM4jmPWPqhnF1-6" value="" style="sketch=0;outlineConnect=0;fontColor=#232F3E;gradientColor=none;fillColor=#3F8624;strokeColor=none;dashed=0;verticalLabelPosition=bottom;verticalAlign=top;align=center;html=1;fontSize=12;fontStyle=0;aspect=fixed;pointerEvents=1;shape=mxgraph.aws4.iot_sitewise_asset_model;" vertex="1" parent="1">
          <mxGeometry x="350" y="232.75" width="78" height="78" as="geometry" />
        </mxCell>
        <mxCell id="Z-E0X7EgM4jmPWPqhnF1-7" value="MyETL" style="text;html=1;strokeColor=none;fillColor=none;align=center;verticalAlign=middle;whiteSpace=wrap;rounded=0;" vertex="1" parent="1">
          <mxGeometry x="359" y="183.5" width="60" height="30" as="geometry" />
        </mxCell>
        <mxCell id="Z-E0X7EgM4jmPWPqhnF1-10" value="" style="image;aspect=fixed;html=1;points=[];align=center;fontSize=12;image=img/lib/azure2/integration/SQL_Data_Warehouses.svg;" vertex="1" parent="1">
          <mxGeometry x="550" y="213.5" width="114.71" height="116.5" as="geometry" />
        </mxCell>
        <mxCell id="Z-E0X7EgM4jmPWPqhnF1-11" value="DataWarehouse" style="text;html=1;strokeColor=none;fillColor=none;align=center;verticalAlign=middle;whiteSpace=wrap;rounded=0;" vertex="1" parent="1">
          <mxGeometry x="560" y="180" width="60" height="30" as="geometry" />
        </mxCell>
      </root>
    </mxGraphModel>
  </diagram>
</mxfile>
